<svg width="256" height="256" viewBox="0 0 256 256" shape-rendering="geometricPrecision" version="1.1" xmlns="http://www.w3.org/2000/svg"><desc>Created by https://guilds.gw2w2w.com/</desc><rect x="0" y="0" width="256" height="256" fill="none" stroke="none" /><g transform="matrix(1,0,0,-1,0,256)">
<g fill="rgb(137,85,0)" stroke="rgb(137,85,0)" stroke-width=".05%" stroke-opacity="50%" opacity="0.7"><path d=" M 108.06 30.10 C 110.36 23.80 116.27 20.04 120.75 15.39 C 121.85 22.03 121.58 28.79 120.33 35.38 C 125.69 35.27 131.05 35.28 136.40 35.38 C 135.13 28.81 135.02 22.06 135.97 15.43 C 140.64 19.91 146.21 23.87 148.85 29.99 C 168.14 34.14 186.53 43.48 200.14 57.93 C 212.32 69.78 220.94 85.07 225.47 101.41 C 227.28 108.96 234.76 112.84 239.35 118.56 C 232.73 119.88 225.96 119.41 219.36 118.24 C 219.73 124.45 219.73 130.68 219.23 136.88 C 226.02 136.33 232.84 136.06 239.62 136.82 C 235.13 142.65 227.34 146.44 226.12 154.30 C 218.26 186.61 192.89 213.87 161.41 224.38 C 157.17 225.93 152.53 226.33 148.52 228.43 C 144.06 231.83 140.63 236.38 136.46 240.12 C 135.01 233.64 135.39 226.98 136.66 220.51 C 131.20 220.58 125.75 220.52 120.30 220.38 C 121.54 226.97 121.96 233.73 120.58 240.33 C 117.82 237.80 115.10 235.21 112.54 232.47 C 110.37 230.26 108.22 227.67 105.02 227.02 C 97.96 225.10 90.79 223.25 84.28 219.79 C 75.78 215.33 67.24 210.49 60.47 203.56 C 55.47 198.50 50.15 193.66 46.23 187.68 C 40.13 178.57 34.67 168.81 32.05 158.08 C 30.95 154.66 30.79 150.64 28.09 147.98 C 24.57 144.39 20.85 141.00 17.46 137.27 C 24.12 136.00 30.92 136.41 37.57 137.54 C 37.19 131.12 37.15 124.69 37.62 118.27 C 30.98 119.42 24.18 119.89 17.54 118.51 C 21.44 114.06 26.18 110.38 29.88 105.76 C 32.57 100.08 33.37 93.67 36.10 87.98 C 39.33 81.11 43.31 74.62 47.51 68.31 C 51.85 62.45 57.32 57.57 62.46 52.44 C 67.21 47.61 73.24 44.43 78.97 40.95 C 87.92 35.64 97.86 32.11 108.06 30.10 M 148.07 33.19 C 148.24 35.59 148.41 38.00 148.60 40.40 C 150.99 41.52 153.39 42.62 155.80 43.71 C 158.63 41.89 161.42 40.02 164.15 38.05 C 158.91 36.05 153.52 34.49 148.07 33.19 M 93.11 37.99 C 96.52 40.40 100.57 44.44 105.07 42.05 C 109.05 41.04 108.38 36.34 108.85 33.17 C 103.51 34.45 98.23 36.00 93.11 37.99 M 90.84 38.85 C 90.01 42.33 90.89 45.90 91.37 49.36 C 93.75 47.94 96.12 46.50 98.49 45.06 C 96.49 42.64 94.57 40.10 92.04 38.22 L 90.84 38.85 M 158.85 45.25 C 161.32 46.86 163.80 48.44 166.29 50.01 C 166.73 46.62 167.22 43.24 167.70 39.86 C 167.00 39.46 165.60 38.65 164.90 38.25 C 162.87 40.57 160.86 42.91 158.85 45.25 M 68.39 52.14 C 69.70 55.80 71.07 59.43 72.52 63.04 C 74.97 61.10 77.41 59.14 79.84 57.18 C 76.83 55.08 73.83 52.96 70.88 50.77 C 75.62 52.05 80.43 54.24 85.45 53.51 C 88.31 49.52 88.70 44.42 89.75 39.77 C 81.80 42.28 74.97 47.17 68.39 52.14 M 167.86 39.84 C 168.08 44.71 169.34 49.45 171.33 53.89 C 176.51 53.75 181.56 52.41 186.25 50.21 C 180.48 46.16 174.55 42.21 167.86 39.84 M 116.82 48.85 C 113.39 52.73 112.06 57.99 109.24 62.29 C 97.73 81.18 81.47 97.19 62.32 108.27 C 58.71 110.43 54.63 111.77 51.26 114.30 C 50.21 115.97 50.16 118.05 49.88 119.95 C 49.33 127.11 49.58 134.32 50.69 141.42 C 78.64 154.29 102.22 176.92 115.20 204.92 C 116.18 207.76 119.49 207.77 121.98 208.00 C 128.36 208.12 134.82 207.83 141.09 206.55 C 147.49 191.32 157.48 177.77 169.42 166.43 C 180.00 155.84 192.66 147.51 206.29 141.38 C 207.91 132.29 207.24 122.93 205.72 113.88 C 184.18 104.65 165.91 88.65 152.32 69.70 C 147.53 63.16 144.04 55.83 140.38 48.64 C 132.63 47.60 124.42 46.57 116.82 48.85 M 178.07 57.32 C 179.76 60.05 182.70 61.57 185.29 63.31 C 186.43 60.06 187.53 56.79 188.55 53.50 C 188.51 58.28 188.63 63.06 189.17 67.81 C 194.17 68.52 199.24 68.64 204.28 68.21 C 199.88 61.27 193.50 55.93 187.00 51.03 C 183.95 53.02 180.75 54.84 178.07 57.32 M 55.44 101.23 C 65.97 96.60 75.15 89.37 83.42 81.46 C 91.47 73.11 98.66 63.74 103.45 53.12 C 82.79 63.28 65.31 80.37 55.44 101.23 M 153.13 53.02 C 157.65 62.31 163.41 71.02 170.57 78.49 C 179.35 87.83 189.54 96.11 201.39 101.21 C 191.25 80.38 173.93 63.19 153.13 53.02 M 52.78 68.33 C 57.67 68.65 62.60 68.49 67.43 67.60 C 67.59 62.73 67.62 57.84 67.26 52.97 C 61.85 57.47 56.29 62.11 52.78 68.33 M 50.96 68.11 C 51.56 72.67 54.71 76.15 57.28 79.75 C 59.21 77.29 61.15 74.83 63.09 72.38 C 59.24 70.45 55.17 68.99 50.96 68.11 M 194.01 72.74 C 196.00 75.29 197.98 77.85 199.99 80.38 C 202.06 77.46 204.12 74.53 206.17 71.59 C 204.55 76.38 203.28 81.32 203.16 86.41 C 207.20 88.06 211.40 89.31 215.69 90.19 C 212.70 90.59 209.73 91.05 206.75 91.52 C 208.27 94.24 209.77 96.97 211.30 99.69 C 213.37 97.84 215.35 95.88 217.02 93.65 C 217.47 94.12 217.91 94.59 218.35 95.08 C 215.20 97.73 213.22 101.44 213.04 105.58 C 216.42 106.25 219.83 106.69 223.26 106.94 C 222.33 102.33 220.73 97.86 220.25 93.16 C 219.84 93.08 219.03 92.93 218.62 92.85 C 216.04 83.93 210.88 76.03 205.14 68.82 C 201.38 69.98 197.67 71.28 194.01 72.74 M 39.72 89.88 C 44.52 89.04 49.21 87.66 53.64 85.65 C 52.57 81.04 51.76 76.31 49.79 71.97 C 45.07 77.00 41.71 83.29 39.72 89.88 M 37.62 90.48 C 39.34 94.19 42.44 96.85 45.70 99.17 C 47.23 96.40 48.71 93.61 50.13 90.78 C 45.96 90.50 41.79 90.34 37.62 90.48 M 36.78 95.29 C 35.66 99.14 34.51 102.99 33.34 106.82 C 36.68 106.64 40.01 106.32 43.32 105.84 C 42.72 101.93 40.90 98.41 38.63 95.21 C 38.17 95.23 37.24 95.27 36.78 95.29 M 33.05 148.73 C 34.07 154.03 35.52 159.24 37.70 164.19 C 40.47 159.94 45.77 154.96 42.48 149.57 C 39.33 149.34 36.19 149.03 33.05 148.73 M 212.77 153.05 C 212.37 157.03 215.80 160.13 217.56 163.42 C 215.22 161.52 212.88 159.61 210.55 157.71 C 209.13 160.50 207.82 163.35 206.64 166.25 C 210.53 166.52 214.43 166.71 218.33 166.79 C 220.80 160.83 222.98 154.71 223.97 148.31 C 220.19 149.12 213.90 148.07 212.77 153.05 M 153.26 202.40 C 174.25 192.44 191.80 175.06 201.68 154.01 C 180.77 164.21 163.63 181.62 153.26 202.40 M 55.44 154.28 C 65.10 175.35 82.73 192.41 103.40 202.67 C 93.67 181.63 76.10 164.58 55.44 154.28 M 46.40 157.92 C 43.73 160.20 41.07 162.47 38.39 164.74 C 38.47 165.64 38.55 166.53 38.64 167.43 C 42.52 167.01 46.41 166.61 50.31 166.30 C 49.11 163.46 47.80 160.67 46.40 157.92 M 203.06 171.63 C 203.65 176.76 204.89 181.79 206.88 186.55 C 211.76 180.84 215.30 174.13 218.04 167.17 C 212.93 168.23 207.92 169.72 203.06 171.63 M 39.68 168.40 C 41.85 175.20 45.76 181.25 50.10 186.86 C 51.76 182.15 52.97 177.31 53.77 172.39 C 49.24 170.54 44.51 169.18 39.68 168.40 M 199.54 178.17 C 197.53 180.18 195.92 182.56 194.23 184.84 C 198.33 186.57 202.57 188.00 206.96 188.83 C 204.97 185.04 203.33 180.52 199.54 178.17 M 50.35 188.52 C 54.82 188.82 58.87 186.49 62.98 185.11 C 61.06 182.66 59.12 180.22 57.15 177.81 C 54.70 181.25 52.02 184.60 50.35 188.52 M 189.45 189.39 C 188.72 194.41 188.52 199.50 189.04 204.56 C 195.71 200.91 200.85 194.98 205.03 188.74 C 199.83 188.50 194.61 188.64 189.45 189.39 M 52.68 190.47 C 57.19 195.84 62.17 200.82 67.57 205.30 C 68.65 200.31 68.44 195.19 67.52 190.20 C 62.60 189.34 57.57 189.40 52.68 190.47 M 72.39 194.76 C 70.64 198.75 68.66 202.86 69.06 207.35 C 72.80 205.24 76.28 202.72 79.60 200.00 C 77.22 198.23 74.81 196.49 72.39 194.76 M 177.27 200.08 C 180.89 202.81 184.62 205.43 188.83 207.17 C 188.28 202.67 186.63 198.44 184.75 194.35 C 182.26 196.26 179.77 198.17 177.27 200.08 M 71.84 207.77 C 76.63 212.84 83.32 215.68 89.68 218.26 C 88.87 213.40 87.47 208.68 85.62 204.13 C 80.89 204.66 76.10 205.51 71.84 207.77 M 168.19 218.27 C 174.60 214.94 181.36 211.96 186.66 206.93 C 181.79 205.18 176.78 203.88 171.66 203.15 C 169.59 207.93 167.95 212.99 168.19 218.27 M 91.50 206.95 C 90.64 211.38 89.97 215.98 91.41 220.37 C 94.37 217.55 96.97 214.40 99.44 211.15 C 96.79 209.76 94.14 208.35 91.50 206.95 M 157.82 210.82 C 160.00 213.51 162.23 216.18 164.50 218.81 C 165.57 218.66 166.65 218.52 167.72 218.38 C 167.22 214.49 166.71 210.60 166.28 206.71 C 163.43 208.02 160.61 209.38 157.82 210.82 M 92.73 219.64 C 97.87 222.01 103.36 223.44 108.84 224.75 C 108.53 220.83 109.57 214.69 104.44 213.55 C 99.85 213.37 96.36 217.34 92.73 219.64 M 148.55 215.52 C 148.45 218.60 148.30 221.68 148.18 224.76 C 153.70 223.28 159.33 222.01 164.44 219.38 C 161.33 217.27 158.37 214.73 154.77 213.50 C 152.46 212.77 150.49 214.59 148.55 215.52 Z" /></g>
</g><g transform="matrix(2,0,0,2,0,0)">
<g fill="rgb(194,97,106)" stroke="rgb(194,97,106)" stroke-width=".05%" stroke-opacity="50%"><path d="M46.6 20.51c.74-3.04 4.42-5.44 7.29-3.38 2.72 1.86 5.8 3.63 7.54 6.53 2.23-.6 6.01-2.16 7.11.94-2.42.09-4.85.19-7.27.04-4.72 2.73-10.51 3.44-14.52 7.46-.61-3.82-1.18-7.79-.15-11.59zM68.8 23.03c2.13-2.24 4.71-4.09 7.36-5.69 2.97-1.98 6.74.66 7.27 3.81.73 3.68.26 7.45-.21 11.13-3.77-4.06-9.14-5.6-14.22-7.27l-.2-1.98zM31.72 68.1c-2.42-3.04.75-1.09 1.82-.79-.33.95-.73 1.87-1.2 2.77-.29-.21-.88-.62-1.17-.82-.43-.69-1.31-2.06-1.74-2.74l2.29 1.58zM95.39 66.63c.52-.1 1.56-.31 2.07-.41.07 1.14.13 2.28.17 3.41-.65-.33-1.3-.67-1.95-1.02l-.49 1.88c.06-1.29.13-2.58.2-3.86zM100.48 71.77c.04 1.64.13 3.26.23 4.89l4.28-.44c-1.32.63-2.63 1.25-3.95 1.87.39.73 1.18 2.19 1.57 2.92-1.09-.71-2.12-1.55-3.33-2.03-.88.67-1.74 1.36-2.59 2.07.69-1.09 1.38-2.17 2.06-3.26-.99-1.03-1.99-2.04-2.97-3.08 1.2.65 2.39 1.32 3.57 2.01.39-1.64.78-3.29 1.13-4.95zM28.16 80.98c.09-1.58.17-3.17.23-4.76.38 1.57.78 3.14 1.2 4.7 1.2-.7 2.42-1.4 3.63-2.08-1.01 1.06-2.05 2.08-3.09 3.11.59 1.14 1.19 2.28 1.79 3.42-.81-.78-1.63-1.56-2.45-2.33-1.1.76-2.19 1.54-3.27 2.32.53-.97 1.06-1.95 1.58-2.92-1.29-.71-2.6-1.37-3.9-2.05 1.42.21 2.85.41 4.28.59zM91.43 91.05c1.32-.05 2.23-.75 2.76-1.92.4 1.15 2.01 2.15 1.06 3.54.26.35.8 1.06 1.07 1.42-1.67-1.35-3-.64-4.09.89.33-.87.65-1.73.95-2.6-.58-.45-1.17-.89-1.75-1.33zM38.77 91.22c.69 1.11 1.34 2.37 2.89 2.21-1.47 1.02-1.57 2.51-.98 4.13-.36-.5-1.07-1.51-1.42-2.01-.58.32-1.75.94-2.33 1.26l1.46-1.94c-.4-.39-1.2-1.16-1.6-1.55l2.1.01-.12-2.11zM75.61 95.78c.13-.59.38-1.78.51-2.37.04.64.11 1.93.14 2.57l1.73-.12-.05.67-1.7-.31c.07.43.2 1.29.26 1.72-1.07-1.03-2.16-2.05-3.24-3.07.59.23 1.76.68 2.35.91zM88.19 94.43c.62-2.25 3.2.13 2.47 1.61-.94 1.98-3.36.08-2.47-1.61zM53.94 94.67l.35 1.53.79.1c.41-.07 1.24-.19 1.66-.26-.01.75-.02 2.25-.03 3-.37-.23-1.12-.68-1.5-.91l-.54.28c-1.77.34-.55-2.78-.73-3.74zM43.57 96.93c.62-.18 1.86-.53 2.48-.7-1.02 1.1-1.85 2.36-2.66 3.62l.18-2.92zM80.37 100.62c.83-1.04 1.66-2.08 2.48-3.13.05 1.33.11 2.67.17 4 1.38.81 2.73 1.68 4.07 2.56-1.43.18-2.85.37-4.27.57-.03.96-.1 2.89-.13 3.86-.69-1.09-1.4-2.17-2.12-3.25-.91.28-2.75.83-3.66 1.11.65-1.06 1.31-2.12 1.98-3.17-.87-.96-1.75-1.89-2.59-2.88 1.36.09 2.71.2 4.07.33zM48.48 99.46c.49 1.22.98 2.44 1.46 3.66 1.6.35 3.18.77 4.76 1.17-1.36.65-2.71 1.31-4.06 1.99.39 1.17.79 2.35 1.22 3.51-1.02-.76-2.05-1.52-3.14-2.16-1.03.53-2.03 1.1-3.02 1.71.2-.81.6-2.44.8-3.26-1.12-.7-2.22-1.42-3.33-2.13 1.3-.25 2.59-.51 3.89-.75.48-1.25.95-2.49 1.42-3.74zM60.52 106.74c.14-.5.42-1.51.55-2.02.13.48.39 1.44.51 1.91.53-.14 1.59-.41 2.12-.55-1.35 1.03-1.67 2.31-.96 3.84-.87-.47-1.74-.93-2.61-1.37-.38-.56-1.13-1.7-1.5-2.26.47.11 1.42.34 1.89.45z" /></g>
<g fill="rgb(135,0,10)" stroke="rgb(135,0,10)" stroke-width=".05%" stroke-opacity="50%"><path d="M50.03 31.07c5.27-3.52 11.47-6.66 18-5.86 4.76 1.26 9.28 3.52 13.13 6.59 4.46 4.22 5.3 10.76 6.42 16.5-2.88 1.62-6.23 3.91-5.22 7.77.89.81 1.76 1.63 2.66 2.44-1.15-1.92-3.02-4.26-1.24-6.44 1.66-1.5 3.82-3.82 6.28-2.97 3.25 1.9 6.18 4.89 7.07 8.64.48 3.18-1.93 5.87-4.38 7.5-2.61 1.2-5.49.2-8.2.02 2.28 1.26 4.88 1.79 7.47 1.38-.17 1.47-.33 2.93-.48 4.4-5.48-1.46-11.86.34-14.82 5.41 3.09-3.5 7.84-5.21 12.43-4.1 2.41.14 4.26 2.16 4.62 4.47.61 4.16-.73 8.41-2.87 11.95-3.62 4.55-10.83 6.65-15.89 3.26-1.64-1.96-1.71-4.63-2.03-7.04-.2 1.38-.32 2.77-.45 4.16-4.94 1.33-10.17 1.25-15.16.26-.1-1.23-.29-2.45-.53-3.66-.45 2.34-.39 5.14-2.18 6.93-4.39 2.33-9.95 1.3-13.72-1.77-2.59-2.23-3.79-5.59-4.62-8.81-.48-2.93-.62-6.62 2.05-8.6 4.43-2.38 10.26-1.55 13.9 1.93-2.91-4.9-9.05-5.66-14.12-4.18.09-1.48.2-2.96.3-4.43 1.76-.05 3.51-.14 5.25-.39.26-.25.77-.75 1.03-1-2.39.41-4.96 1.04-7.29.11-2.53-1.63-5.24-4.32-4.52-7.62.69-3.37 3.17-6.22 6.17-7.81 2.83-.85 6.25.46 7.91 2.88.7 2.68-1.56 4.59-2.8 6.67 1.78-1.7 4.51-3.79 3.51-6.6-.68-2.25-3.28-2.91-5.11-3.95.68-6.44 1.96-13.86 7.43-18.04m22.33 24.52c1.21-2.81 3.17-5.09 6.49-4.47-.97-.64-1.92-1.31-2.88-1.95-2.6 1.11-3.5 3.75-3.61 6.42m-20.66-4.5c3.14-.09 4.76 2.35 6.29 4.67-.48-1.92-.47-4.33-2.31-5.55-1.33-1.07-2.81.23-3.98.88m12.14 15.23c5.52-.13 10.27-3.79 13.23-8.25-3.76 3.57-8.52 7.21-14.05 6.18-4.13-.24-7.06-3.38-9.94-5.95 2.26 4.04 6.15 7.16 10.76 8.02M40.7 79.74c2.11-1.62 4.37-3.02 6.53-4.56-3.05-.04-5.34 1.87-6.53 4.56m43.02-3.51c2.12.78 4.11 1.84 6.1 2.88-1.24-1.97-3.67-4.71-6.1-2.88z" />
<path d="M56.76 90.01c5.29 1.57 11.03 1.34 16.32-.12.11.48.32 1.44.43 1.93-2.71 2.66-4.87 6.12-8.31 7.88-3.79-1.01-6.23-5.01-8.69-7.92.06-.44.19-1.33.25-1.77m3.95 2.17c2.46 1.81 5.7 1.55 8.11-.22-1.06.2-3.18.59-4.24.78-1.28-.22-2.58-.41-3.87-.56z" /></g>


</g></svg>